<?xml version="1.0" encoding="UTF-8" standalone="no"?>
<svg
   xmlns:dc="http://purl.org/dc/elements/1.1/"
   xmlns:cc="http://creativecommons.org/ns#"
   xmlns:rdf="http://www.w3.org/1999/02/22-rdf-syntax-ns#"
   xmlns:svg="http://www.w3.org/2000/svg"
   xmlns="http://www.w3.org/2000/svg"
   viewBox="0 0 397.9025 267.98624"
   height="267.98624"
   width="397.9025"
   xml:space="preserve"
   version="1.1"
   id="svg2"><metadata
     id="metadata8"><rdf:RDF><cc:Work
         rdf:about=""><dc:format>image/svg+xml</dc:format><dc:type
           rdf:resource="http://purl.org/dc/dcmitype/StillImage" /></cc:Work></rdf:RDF></metadata><defs
     id="defs6"><clipPath
       id="clipPath168"
       clipPathUnits="userSpaceOnUse"><path
         id="path170"
         d="m -79.2021,4.4224 194.27911,0 0,161.39587 -194.27911,0 0,-161.39587 z" /></clipPath></defs><g
     transform="matrix(1.25,0,0,-1.25,0,267.98625)"
     id="g10"><g
       transform="translate(46.336,30.214)"
       id="g12"><g
         id="g14"><g
           id="g16"><g
             id="g18" /><g
             id="g20" /><g
             id="g22"><g
               id="g24" /></g><g
             id="g26" /><g
             id="g28" /><g
             id="g30" /><g
             id="g32" /><g
             transform="translate(-46.336,-30.214)"
             id="g34"><g
               transform="translate(125.537,25.792)"
               id="g36"><g
                 id="g38"><g
                   id="g40"><g
                     id="g42"><g
                       id="g44"><g
                         id="g46"><path
                           id="path48"
                           style="fill:none;stroke:#bfbfbf;stroke-width:0.3985;stroke-linecap:butt;stroke-linejoin:miter;stroke-miterlimit:10;stroke-dasharray:none;stroke-opacity:1"
                           d="M 0,4.4224 0,165.81827 M 83.86668,4.4224 l 0,161.39587" /></g></g><g
                       id="g50"><g
                         id="g52"><path
                           id="path54"
                           style="fill:none;stroke:#bfbfbf;stroke-width:0.3985;stroke-linecap:butt;stroke-linejoin:miter;stroke-miterlimit:10;stroke-dasharray:none;stroke-opacity:1"
                           d="m -79.2021,41.63396 194.27911,0 m -194.27911,41.63397 194.27911,0 m -194.27911,41.63399 194.27911,0" /></g></g><g
                       id="g56"><g
                         id="g58"><path
                           id="path60"
                           style="fill:none;stroke:#808080;stroke-width:0.19925;stroke-linecap:butt;stroke-linejoin:miter;stroke-miterlimit:10;stroke-dasharray:none;stroke-opacity:1"
                           d="m -58.6203,4.4224 0,2.8299 m 0,158.56597 0,-2.82993 M -43.85185,4.4224 l 0,2.8299 m 0,158.56597 0,-2.82993 M -33.37393,4.4224 l 0,2.8299 m 0,158.56597 0,-2.82993 m 8.12758,-158.56594 0,2.8299 m 0,158.56597 0,-2.82993 m 6.64088,-158.56594 0,2.8299 m 0,158.56597 0,-2.82993 m 5.61438,-158.56594 0,2.8299 m 0,158.56597 0,-2.82993 M -8.12755,4.4224 l 0,2.8299 m 0,158.56597 0,-2.82993 M -3.83757,4.4224 l 0,2.8299 m 0,158.56597 0,-2.82993 M 0,4.4224 0,7.2523 m 0,158.56597 0,-2.82993 M 25.24635,4.4224 l 0,2.8299 m 0,158.56597 0,-2.82993 M 40.0148,4.4224 l 0,2.8299 m 0,158.56597 0,-2.82993 M 50.49272,4.4224 l 0,2.8299 m 0,158.56597 0,-2.82993 M 58.6203,4.4224 l 0,2.8299 m 0,158.56597 0,-2.82993 M 65.26118,4.4224 l 0,2.8299 m 0,158.56597 0,-2.82993 M 70.87556,4.4224 l 0,2.8299 m 0,158.56597 0,-2.82993 M 75.7391,4.4224 l 0,2.8299 m 0,158.56597 0,-2.82993 M 80.02908,4.4224 l 0,2.8299 m 0,158.56597 0,-2.82993 m 3.8376,-158.56594 0,2.8299 m 0,158.56597 0,-2.82993 M 109.11304,4.4224 l 0,2.8299 m 0,158.56597 0,-2.82993" /></g><g
                         id="g62"><path
                           id="path64"
                           style="fill:none;stroke:#808080;stroke-width:0.19925;stroke-linecap:butt;stroke-linejoin:miter;stroke-miterlimit:10;stroke-dasharray:none;stroke-opacity:1"
                           d="m 0,4.4224 0,4.24473 m 0,157.15114 0,-4.24475 M 83.86668,4.4224 l 0,4.24473 m 0,157.15114 0,-4.24475" /></g></g><g
                       id="g66"><g
                         id="g68"><path
                           id="path70"
                           style="fill:none;stroke:#808080;stroke-width:0.19925;stroke-linecap:butt;stroke-linejoin:miter;stroke-miterlimit:10;stroke-dasharray:none;stroke-opacity:1"
                           d="m -79.2021,12.53305 2.82885,0 m 191.45026,0 -2.82887,0 m -191.45024,7.33151 2.82885,0 m 191.45026,0 -2.82887,0 m -191.45024,5.20157 2.82885,0 m 191.45026,0 -2.82887,0 m -191.45024,4.03476 2.82885,0 m 191.45026,0 -2.82887,0 m -191.45024,3.29674 2.82885,0 m 191.45026,0 -2.82887,0 m -191.45024,2.78714 2.82885,0 m 191.45026,0 -2.82887,0 m -191.45024,2.41441 2.82885,0 m 191.45026,0 -2.82887,0 m -191.45024,2.12967 2.82885,0 m 191.45026,0 -2.82887,0 m -191.45024,1.90511 2.82885,0 m 191.45026,0 -2.82887,0 m -191.45024,12.53306 2.82885,0 m 191.45026,0 -2.82887,0 m -191.45024,7.33152 2.82885,0 m 191.45026,0 -2.82887,0 m -191.45024,5.20155 2.82885,0 m 191.45026,0 -2.82887,0 m -191.45024,4.03477 2.82885,0 m 191.45026,0 -2.82887,0 m -191.45024,3.29674 2.82885,0 m 191.45026,0 -2.82887,0 m -191.45024,2.78716 2.82885,0 m 191.45026,0 -2.82887,0 m -191.45024,2.41439 2.82885,0 m 191.45026,0 -2.82887,0 m -191.45024,2.12969 2.82885,0 m 191.45026,0 -2.82887,0 m -191.45024,1.90509 2.82885,0 m 191.45026,0 -2.82887,0 M -79.2021,95.801 l 2.82885,0 m 191.45026,0 -2.82887,0 m -191.45024,7.3315 2.82885,0 m 191.45026,0 -2.82887,0 m -191.45024,5.20156 2.82885,0 m 191.45026,0 -2.82887,0 m -191.45024,4.03478 2.82885,0 m 191.45026,0 -2.82887,0 m -191.45024,3.29673 2.82885,0 m 191.45026,0 -2.82887,0 m -191.45024,2.78716 2.82885,0 m 191.45026,0 -2.82887,0 m -191.45024,2.41441 2.82885,0 m 191.45026,0 -2.82887,0 m -191.45024,2.12967 2.82885,0 m 191.45026,0 -2.82887,0 m -191.45024,1.90511 2.82885,0 m 191.45026,0 -2.82887,0 m -191.45024,12.53305 2.82885,0 m 191.45026,0 -2.82887,0 m -191.45024,7.33151 2.82885,0 m 191.45026,0 -2.82887,0 m -191.45024,5.20157 2.82885,0 m 191.45026,0 -2.82887,0 m -191.45024,4.03475 2.82885,0 m 191.45026,0 -2.82887,0 m -191.45024,3.29675 2.82885,0 m 191.45026,0 -2.82887,0 m -191.45024,2.78714 2.82885,0 m 191.45026,0 -2.82887,0 m -191.45024,2.41441 2.82885,0 m 191.45026,0 -2.82887,0 m -191.45024,2.12967 2.82885,0 m 191.45026,0 -2.82887,0" /></g><g
                         id="g72"><path
                           id="path74"
                           style="fill:none;stroke:#808080;stroke-width:0.19925;stroke-linecap:butt;stroke-linejoin:miter;stroke-miterlimit:10;stroke-dasharray:none;stroke-opacity:1"
                           d="m -79.2021,41.63396 4.24275,0 m 190.03636,0 -4.24275,0 m -190.03636,41.63397 4.24275,0 m 190.03636,0 -4.24275,0 m -190.03636,41.63399 4.24275,0 m 190.03636,0 -4.24275,0" /></g></g><path
                       id="path76"
                       style="fill:none;stroke:#000000;stroke-width:0.3985;stroke-linecap:butt;stroke-linejoin:miter;stroke-miterlimit:10;stroke-dasharray:none;stroke-opacity:1"
                       d="m -79.2021,4.4224 0,161.39587 194.27911,0 0,-161.39587 -194.27911,0 z" /><g
                       id="g78"><g
                         transform="translate(-2.491,-5.518)"
                         id="g80"><g
                           id="g82"><g
                             transform="translate(-123.046,-20.274)"
                             id="g84"><text
                               id="text86"
                               style="font-variant:normal;font-weight:normal;font-size:9.96263981px;font-family:CMR10;-inkscape-font-specification:CMR10;writing-mode:lr-tb;fill:#000000;fill-opacity:1;fill-rule:nonzero;stroke:none"
                               transform="matrix(1,0,0,-1,123.046,20.274)"><tspan
                                 id="tspan88"
                                 y="0"
                                 x="0">1</tspan></text>
<g
                               transform="translate(123.046,20.274)"
                               id="g90" /></g></g><g
                           transform="translate(2.491,5.518)"
                           id="g92" /></g></g><g
                       id="g94"><g
                         transform="translate(78.884,-5.518)"
                         id="g96"><g
                           id="g98"><g
                             transform="translate(-204.421,-20.274)"
                             id="g100"><text
                               id="text102"
                               style="font-variant:normal;font-weight:normal;font-size:9.96263981px;font-family:CMR10;-inkscape-font-specification:CMR10;writing-mode:lr-tb;fill:#000000;fill-opacity:1;fill-rule:nonzero;stroke:none"
                               transform="matrix(1,0,0,-1,204.421,20.274)"><tspan
                                 id="tspan104"
                                 y="0"
                                 x="0 4.9813199">10</tspan></text>
<g
                               transform="translate(204.421,20.274)"
                               id="g106" /></g></g><g
                           transform="translate(-78.884,5.518)"
                           id="g108" /></g></g><g
                       id="g110"><g
                         transform="translate(-92.683,38.423)"
                         id="g112"><g
                           id="g114"><g
                             transform="translate(-32.854,-64.215)"
                             id="g116"><text
                               id="text118"
                               style="font-variant:normal;font-weight:normal;font-size:9.96263981px;font-family:CMR10;-inkscape-font-specification:CMR10;writing-mode:lr-tb;fill:#000000;fill-opacity:1;fill-rule:nonzero;stroke:none"
                               transform="matrix(1,0,0,-1,32.854,64.215)"><tspan
                                 id="tspan120"
                                 y="0"
                                 x="0 4.9813199">10</tspan></text>
<g
                               transform="translate(32.854,64.215)"
                               id="g122" /></g></g><g
                           transform="translate(92.683,-38.423)"
                           id="g124" /></g></g><g
                       id="g126"><g
                         transform="translate(-97.665,80.057)"
                         id="g128"><g
                           id="g130"><g
                             transform="translate(-27.872,-105.849)"
                             id="g132"><text
                               id="text134"
                               style="font-variant:normal;font-weight:normal;font-size:9.96263981px;font-family:CMR10;-inkscape-font-specification:CMR10;writing-mode:lr-tb;fill:#000000;fill-opacity:1;fill-rule:nonzero;stroke:none"
                               transform="matrix(1,0,0,-1,27.872,105.849)"><tspan
                                 id="tspan136"
                                 y="0"
                                 x="0 4.9813199 9.9626398">100</tspan></text>
<g
                               transform="translate(27.872,105.849)"
                               id="g138" /></g></g><g
                           transform="translate(97.665,-80.057)"
                           id="g140" /></g></g><g
                       id="g142"><g
                         transform="translate(-105.414,122.659)"
                         id="g144"><g
                           id="g146"><g
                             transform="translate(-20.123,-148.451)"
                             id="g148"><text
                               id="text150"
                               style="font-variant:normal;font-weight:normal;font-size:9.96263981px;font-family:CMR10;-inkscape-font-specification:CMR10;writing-mode:lr-tb;fill:#000000;fill-opacity:1;fill-rule:nonzero;stroke:none"
                               transform="matrix(1,0,0,-1,20.123,148.451)"><tspan
                                 id="tspan152"
                                 y="0"
                                 x="0">1</tspan></text>
<text
                               id="text154"
                               style="font-variant:normal;font-weight:normal;font-size:9.96263981px;font-family:CMMI10;-inkscape-font-specification:CMMI10;writing-mode:lr-tb;fill:#000000;fill-opacity:1;fill-rule:nonzero;stroke:none"
                               transform="matrix(1,0,0,-1,25.105,148.451)"><tspan
                                 id="tspan156"
                                 y="0"
                                 x="0">,</tspan></text>
<text
                               id="text158"
                               style="font-variant:normal;font-weight:normal;font-size:9.96263981px;font-family:CMR10;-inkscape-font-specification:CMR10;writing-mode:lr-tb;fill:#000000;fill-opacity:1;fill-rule:nonzero;stroke:none"
                               transform="matrix(1,0,0,-1,27.872,148.451)"><tspan
                                 id="tspan160"
                                 y="0"
                                 x="0 4.9813199 9.9626398">000</tspan></text>
<g
                               transform="translate(20.123,148.451)"
                               id="g162" /></g></g><g
                           transform="translate(105.414,-122.659)"
                           id="g164" /></g></g><g
                       clip-path="url(#clipPath168)"
                       id="g166"><g
                         id="g172"><path
                           id="path174"
                           style="fill:none;stroke:#0000ff;stroke-width:0.3985;stroke-linecap:butt;stroke-linejoin:miter;stroke-miterlimit:10;stroke-dasharray:none;stroke-opacity:1"
                           d="m -63.01143,152.3681 25.91885,-15.3914 14.85238,-12.61555 10.60519,-59.56035 8.36098,-4.64534" /></g><g
                         id="g176"><path
                           id="path178"
                           style="fill:none;stroke:#ff0000;stroke-width:0.3985;stroke-linecap:butt;stroke-linejoin:miter;stroke-miterlimit:10;stroke-dasharray:none;stroke-opacity:1"
                           d="m -61.67314,150.72319 25.33807,-15.22339 14.74178,-3.72963 10.5585,-6.37881 8.13202,-6.61336 6.68921,-61.6569 10.4718,-5.8869" /></g><g
                         id="g180"><path
                           id="path182"
                           style="fill:none;stroke:#734c26;stroke-width:0.3985;stroke-linecap:butt;stroke-linejoin:miter;stroke-miterlimit:10;stroke-dasharray:none;stroke-opacity:1"
                           d="m -61.4425,148.1115 25.28918,-7.6121 14.74287,-7.44877 10.48848,-5.72218 8.06533,-8.30709 6.6992,-4.5496 10.47905,-2.95049 14.77345,-67.71266 10.47014,-5.68549" /></g><g
                         id="g184"><path
                           id="path186"
                           style="fill:none;stroke:#000000;stroke-width:0.3985;stroke-linecap:butt;stroke-linejoin:miter;stroke-miterlimit:10;stroke-dasharray:none;stroke-opacity:1"
                           d="m -61.40749,151.40135 25.21249,-8.95463 14.79734,-8.20336 10.49849,-7.08183 8.09311,-3.51303 6.70921,-5.48934 L 14.71619,112.0499 29.52856,100.3997 40.0287,96.9515 54.84996,30.74802 65.359,24.8523" /></g><g
                         id="g188"><path
                           id="path190"
                           style="fill:none;stroke:#0000ff;stroke-width:0.3985;stroke-linecap:butt;stroke-linejoin:miter;stroke-miterlimit:10;stroke-dasharray:none;stroke-opacity:1"
                           d="m -60.79169,147.95451 25.20525,-7.70562 14.72287,-8.68784 10.51071,-8.66797 8.12314,-2.28474 6.66308,-3.14417 10.48292,-7.3591 14.74343,-8.36392 10.50516,1.25479 14.77236,-10.89394 10.50625,-5.3271 8.112,-6.55015 6.68646,-62.35219" /></g><g
                         id="g192"><path
                           id="path194"
                           style="fill:none;stroke:#ff0000;stroke-width:0.3985;stroke-linecap:butt;stroke-linejoin:miter;stroke-miterlimit:10;stroke-dasharray:2.98883, 1.99255;stroke-dashoffset:0;stroke-opacity:1"
                           d="m -60.7439,150.87851 25.26084,-10.21109 14.76289,-6.66328 10.49681,-6.13492 8.12035,-5.77185 6.6125,-3.73073 10.51906,-11.9498 14.72676,-4.99905 10.47292,2.56863 14.76733,-7.31274 10.46793,-10.75848 8.14591,-1.3224 6.65088,-10.21605 10.49349,-3.68768 8.13257,-6.35373" /></g><g
                         id="g196"><path
                           id="path198"
                           style="fill:none;stroke:#734c26;stroke-width:0.3985;stroke-linecap:butt;stroke-linejoin:miter;stroke-miterlimit:10;stroke-dasharray:2.98883, 1.99255;stroke-dashoffset:0;stroke-opacity:1"
                           d="m -37.50996,102.43309 15.30866,-11.7655 10.55683,-1.41922 14.95851,-9.00183 10.85195,-3.87337 14.81179,-8.53803 10.51351,-5.19134 8.20091,-4.08829 6.64423,-3.7782 10.5496,-5.25396 8.5105,-4.00803 6.72481,-3.32072 10.5207,-5.49347" /></g></g></g><g
                     id="g200"><g
                       transform="translate(-82.414,-19.981)"
                       id="g202"><g
                         id="g204"><g
                           transform="translate(-43.123,-5.811)"
                           id="g206"><text
                             id="text208"
                             style="font-variant:normal;font-weight:normal;font-size:9.96263981px;font-family:'Droid Sans';-inkscape-font-specification:DroidSans;writing-mode:lr-tb;fill:#000000;fill-opacity:1;fill-rule:nonzero;stroke:none"
                             transform="matrix(1,0,0,-1,43.123,5.811)"><tspan
                               id="tspan210"
                               y="0"
                               x="0 6.0562887 10.828393 15.990037 22.108095 26.603237 29.181568 33.574097 41.496387 47.245827 53.104855 57.599998 62.932003 66.906105 69.484436 74.772598 77.350937 79.929268 84.321793 89.653801 98.081192 100.78107 105.95168 113.34595 123.19901 129.03612 134.36812 140.9325 144.9066 150.2386 156.07571 161.94272 167.27472 171.76987">Avg.sizeofserializedJSONperrequest</tspan></text>
<text
                             id="text212"
                             style="font-variant:normal;font-weight:normal;font-size:9.96263981px;font-family:CMR10;-inkscape-font-specification:CMR10;writing-mode:lr-tb;fill:#000000;fill-opacity:1;fill-rule:nonzero;stroke:none"
                             transform="matrix(1,0,0,-1,220.856,5.811)"><tspan
                               id="tspan214"
                               y="0"
                               x="0">[</tspan></text>
<text
                             id="text216"
                             style="font-variant:normal;font-weight:normal;font-size:9.96263981px;font-family:'Droid Sans';-inkscape-font-specification:DroidSans;writing-mode:lr-tb;fill:#000000;fill-opacity:1;fill-rule:nonzero;stroke:none"
                             transform="matrix(1,0,0,-1,223.624,5.811)"><tspan
                               id="tspan218"
                               y="0"
                               x="0 8.6684933 11.246824">MiB</tspan></text>
<text
                             id="text220"
                             style="font-variant:normal;font-weight:normal;font-size:9.96263981px;font-family:CMR10;-inkscape-font-specification:CMR10;writing-mode:lr-tb;fill:#000000;fill-opacity:1;fill-rule:nonzero;stroke:none"
                             transform="matrix(1,0,0,-1,241.058,5.811)"><tspan
                               id="tspan222"
                               y="0"
                               x="0">]</tspan></text>
<g
                             transform="translate(43.123,5.811)"
                             id="g224" /></g></g><g
                         transform="translate(82.414,19.981)"
                         id="g226" /></g></g><g
                     id="g228"><g
                       transform="matrix(0,1,-1,0,-114.647,38.709)"
                       id="g230"><g
                         id="g232"><g
                           transform="translate(-10.89,-64.501)"
                           id="g234"><text
                             id="text236"
                             style="font-variant:normal;font-weight:normal;font-size:9.96263981px;font-family:'Droid Sans';-inkscape-font-specification:DroidSans;writing-mode:lr-tb;fill:#000000;fill-opacity:1;fill-rule:nonzero;stroke:none"
                             transform="matrix(1,0,0,-1,10.89,64.501)"><tspan
                               id="tspan238"
                               y="0"
                               x="0 5.8759651 11.20797 17.04508 22.912079 28.244085 32.739227 36.115566 43.191032 49.028145 54.360149 60.924534 65.419678 70.751678 75.363388 81.112823 86.979828">Requestspersecond</tspan></text>
<g
                             transform="translate(10.89,64.501)"
                             id="g240" /></g></g><g
                         transform="translate(114.647,-38.709)"
                         id="g242" /></g></g><g
                     id="g244"><g
                       transform="translate(-48.27,177.707)"
                       id="g246"><g
                         id="g248"><g
                           transform="translate(-77.267,-203.499)"
                           id="g250"><text
                             id="text252"
                             style="font-variant:normal;font-weight:normal;font-size:9.96263981px;font-family:'Droid Sans';-inkscape-font-specification:DroidSans;writing-mode:lr-tb;fill:#000000;fill-opacity:1;fill-rule:nonzero;stroke:none"
                             transform="matrix(1,0,0,-1,77.267,203.499)"><tspan
                               id="tspan254"
                               y="0"
                               x="0 5.17061 10.502615 14.476712 17.055044 22.343212 24.921543 27.499876 31.892403 34.470734 40.337734 48.0797 52.691406 58.440845 61.019176 63.597507 68.929512 73.541222 76.917557 79.495888 85.245331 93.702614 97.676712 103.00871 108.84583 114.71282 120.04483 124.53997 127.91631">Serializingcollectionrequests</tspan></text>
<g
                             transform="translate(77.267,203.499)"
                             id="g256" /></g></g><g
                         transform="translate(48.27,-177.707)"
                         id="g258" /></g></g><g
                     id="g260"><g
                       id="g262"><path
                         id="path264"
                         style="fill:#ffffff;fill-opacity:1;fill-rule:nonzero;stroke:#000000;stroke-width:0.3985;stroke-linecap:butt;stroke-linejoin:miter;stroke-miterlimit:10;stroke-dasharray:none;stroke-opacity:1"
                         d="m 123.90823,58.61508 68.67998,0 0,107.00392 -68.67998,0 0,-107.00392 z" /></g><g
                       transform="translate(126.895,67.131)"
                       id="g266"><g
                         transform="translate(0.2,89.969)"
                         id="g268"><g
                           id="g270"><g
                             id="g272" /></g><g
                           transform="translate(17.008,0)"
                           id="g274"><g
                             id="g276"><g
                               id="g278"><g
                                 transform="translate(2.192,-3.037)"
                                 id="g280"><g
                                   id="g282"><g
                                   transform="translate(-271.832,-179.855)"
                                   id="g284"><text
                                   id="text286"
                                   style="font-variant:normal;font-weight:bold;font-size:9.96263981px;font-family:'Droid Sans';-inkscape-font-specification:DroidSans-Bold;writing-mode:lr-tb;fill:#000000;fill-opacity:1;fill-rule:nonzero;stroke:none"
                                   transform="matrix(1,0,0,-1,257.658,179.855)"><tspan
                                   id="tspan288"
                                   y="0"
                                   x="0 6.3481941 12.068742 17.0401 23.286674 31.656288 36.448318 39.488914 44.041843">Cachesize</tspan></text>
<g
                                   transform="translate(271.832,179.855)"
                                   id="g290" /></g></g><g
                                   transform="translate(-2.192,3.037)"
                                   id="g292" /></g></g></g><g
                             transform="translate(-17.008,-12.934)"
                             id="g294"><g
                               id="g296"><g
                                 id="g298"><path
                                   id="path300"
                                   style="fill:none;stroke:#0000ff;stroke-width:0.3985;stroke-linecap:butt;stroke-linejoin:miter;stroke-miterlimit:10;stroke-dasharray:none;stroke-opacity:1"
                                   d="m 0,0 8.50412,0 8.50414,0" /></g></g><g
                               transform="translate(17.008,0)"
                               id="g302"><g
                                 id="g304"><g
                                   id="g306"><g
                                   transform="translate(2.192,-2.923)"
                                   id="g308"><g
                                   id="g310"><g
                                   transform="translate(-271.832,-167.035)"
                                   id="g312"><text
                                   id="text314"
                                   style="font-variant:normal;font-weight:normal;font-size:9.96263981px;font-family:'Droid Sans';-inkscape-font-specification:DroidSans;writing-mode:lr-tb;fill:#000000;fill-opacity:1;fill-rule:nonzero;stroke:none"
                                   transform="matrix(1,0,0,-1,271.832,167.035)"><tspan
                                   id="tspan316"
                                   y="0"
                                   x="0 5.487422 12.628642 21.297136 23.875467">32MiB</tspan></text>
<g
                                   transform="translate(271.832,167.035)"
                                   id="g318" /></g></g><g
                                   transform="translate(-2.192,2.923)"
                                   id="g320" /></g></g></g><g
                                 transform="translate(-17.008,-12.82)"
                                 id="g322"><g
                                   id="g324"><g
                                   id="g326"><path
                                   id="path328"
                                   style="fill:none;stroke:#ff0000;stroke-width:0.3985;stroke-linecap:butt;stroke-linejoin:miter;stroke-miterlimit:10;stroke-dasharray:none;stroke-opacity:1"
                                   d="m 0,0 8.50412,0 8.50414,0" /></g></g><g
                                   transform="translate(17.008,0)"
                                   id="g330"><g
                                   id="g332"><g
                                   id="g334"><g
                                   transform="translate(2.192,-2.923)"
                                   id="g336"><g
                                   id="g338"><g
                                   transform="translate(-271.832,-154.215)"
                                   id="g340"><text
                                   id="text342"
                                   style="font-variant:normal;font-weight:normal;font-size:9.96263981px;font-family:'Droid Sans';-inkscape-font-specification:DroidSans;writing-mode:lr-tb;fill:#000000;fill-opacity:1;fill-rule:nonzero;stroke:none"
                                   transform="matrix(1,0,0,-1,271.832,154.215)"><tspan
                                   id="tspan344"
                                   y="0"
                                   x="0 5.487422 12.628642 21.297136 23.875467">64MiB</tspan></text>
<g
                                   transform="translate(271.832,154.215)"
                                   id="g346" /></g></g><g
                                   transform="translate(-2.192,2.923)"
                                   id="g348" /></g></g></g><g
                                   transform="translate(-17.008,-12.82)"
                                   id="g350"><g
                                   id="g352"><g
                                   id="g354"><path
                                   id="path356"
                                   style="fill:none;stroke:#734c26;stroke-width:0.3985;stroke-linecap:butt;stroke-linejoin:miter;stroke-miterlimit:10;stroke-dasharray:none;stroke-opacity:1"
                                   d="m 0,0 8.50412,0 8.50414,0" /></g></g><g
                                   transform="translate(17.008,0)"
                                   id="g358"><g
                                   id="g360"><g
                                   id="g362"><g
                                   transform="translate(2.192,-2.923)"
                                   id="g364"><g
                                   id="g366"><g
                                   transform="translate(-271.832,-141.395)"
                                   id="g368"><text
                                   id="text370"
                                   style="font-variant:normal;font-weight:normal;font-size:9.96263981px;font-family:'Droid Sans';-inkscape-font-specification:DroidSans;writing-mode:lr-tb;fill:#000000;fill-opacity:1;fill-rule:nonzero;stroke:none"
                                   transform="matrix(1,0,0,-1,271.832,141.395)"><tspan
                                   id="tspan372"
                                   y="0"
                                   x="0 5.487422 10.974844 18.116064 26.784557 29.362888">128MiB</tspan></text>
<g
                                   transform="translate(271.832,141.395)"
                                   id="g374" /></g></g><g
                                   transform="translate(-2.192,2.923)"
                                   id="g376" /></g></g></g><g
                                   transform="translate(-17.008,-12.82)"
                                   id="g378"><g
                                   id="g380"><g
                                   id="g382"><path
                                   id="path384"
                                   style="fill:none;stroke:#000000;stroke-width:0.3985;stroke-linecap:butt;stroke-linejoin:miter;stroke-miterlimit:10;stroke-dasharray:none;stroke-opacity:1"
                                   d="m 0,0 8.50412,0 8.50414,0" /></g></g><g
                                   transform="translate(17.008,0)"
                                   id="g386"><g
                                   id="g388"><g
                                   id="g390"><g
                                   transform="translate(2.192,-2.923)"
                                   id="g392"><g
                                   id="g394"><g
                                   transform="translate(-271.832,-128.575)"
                                   id="g396"><text
                                   id="text398"
                                   style="font-variant:normal;font-weight:normal;font-size:9.96263981px;font-family:'Droid Sans';-inkscape-font-specification:DroidSans;writing-mode:lr-tb;fill:#000000;fill-opacity:1;fill-rule:nonzero;stroke:none"
                                   transform="matrix(1,0,0,-1,271.832,128.575)"><tspan
                                   id="tspan400"
                                   y="0"
                                   x="0 5.487422 10.974844 18.116064 26.784557 29.362888">256MiB</tspan></text>
<g
                                   transform="translate(271.832,128.575)"
                                   id="g402" /></g></g><g
                                   transform="translate(-2.192,2.923)"
                                   id="g404" /></g></g></g><g
                                   transform="translate(-17.008,-12.82)"
                                   id="g406"><g
                                   id="g408"><g
                                   id="g410"><path
                                   id="path412"
                                   style="fill:none;stroke:#0000ff;stroke-width:0.3985;stroke-linecap:butt;stroke-linejoin:miter;stroke-miterlimit:10;stroke-dasharray:none;stroke-opacity:1"
                                   d="m 0,0 8.50412,0 8.50414,0" /></g></g><g
                                   transform="translate(17.008,0)"
                                   id="g414"><g
                                   id="g416"><g
                                   id="g418"><g
                                   transform="translate(2.192,-2.924)"
                                   id="g420"><g
                                   id="g422"><g
                                   transform="translate(-271.832,-115.754)"
                                   id="g424"><text
                                   id="text426"
                                   style="font-variant:normal;font-weight:normal;font-size:9.96263981px;font-family:'Droid Sans';-inkscape-font-specification:DroidSans;writing-mode:lr-tb;fill:#000000;fill-opacity:1;fill-rule:nonzero;stroke:none"
                                   transform="matrix(1,0,0,-1,271.832,115.754)"><tspan
                                   id="tspan428"
                                   y="0"
                                   x="0 5.487422 10.974844 18.116064 26.784557 29.362888">512MiB</tspan></text>
<g
                                   transform="translate(271.832,115.754)"
                                   id="g430" /></g></g><g
                                   transform="translate(-2.192,2.924)"
                                   id="g432" /></g></g></g><g
                                   transform="translate(-17.008,-12.82)"
                                   id="g434"><g
                                   id="g436"><g
                                   id="g438"><path
                                   id="path440"
                                   style="fill:none;stroke:#ff0000;stroke-width:0.3985;stroke-linecap:butt;stroke-linejoin:miter;stroke-miterlimit:10;stroke-dasharray:2.98883, 1.99255;stroke-dashoffset:0;stroke-opacity:1"
                                   d="m 0,0 8.50412,0 8.50414,0" /></g></g><g
                                   transform="translate(17.008,0)"
                                   id="g442"><g
                                   id="g444"><g
                                   id="g446"><g
                                   transform="translate(2.192,-2.924)"
                                   id="g448"><g
                                   id="g450"><g
                                   transform="translate(-271.832,-102.934)"
                                   id="g452"><text
                                   id="text454"
                                   style="font-variant:normal;font-weight:normal;font-size:9.96263981px;font-family:'Droid Sans';-inkscape-font-specification:DroidSans;writing-mode:lr-tb;fill:#000000;fill-opacity:1;fill-rule:nonzero;stroke:none"
                                   transform="matrix(1,0,0,-1,271.832,102.934)"><tspan
                                   id="tspan456"
                                   y="0"
                                   x="0 5.487422 10.974844 16.462267 23.603487 32.27198 34.850311">1024MiB</tspan></text>
<g
                                   transform="translate(271.832,102.934)"
                                   id="g458" /></g></g><g
                                   transform="translate(-2.192,2.924)"
                                   id="g460" /></g></g></g><g
                                   transform="translate(-17.008,-12.935)"
                                   id="g462"><g
                                   id="g464"><g
                                   id="g466"><path
                                   id="path468"
                                   style="fill:none;stroke:#734c26;stroke-width:0.3985;stroke-linecap:butt;stroke-linejoin:miter;stroke-miterlimit:10;stroke-dasharray:2.98883, 1.99255;stroke-dashoffset:0;stroke-opacity:1"
                                   d="m 0,0 8.50412,0 8.50414,0" /></g></g><g
                                   transform="translate(17.008,0)"
                                   id="g470"><g
                                   id="g472"><g
                                   id="g474"><g
                                   transform="translate(2.192,-3.037)"
                                   id="g476"><g
                                   id="g478"><g
                                   transform="translate(-271.832,-89.886)"
                                   id="g480"><text
                                   id="text482"
                                   style="font-variant:normal;font-weight:normal;font-size:9.96263981px;font-family:'Droid Sans';-inkscape-font-specification:DroidSans;writing-mode:lr-tb;fill:#000000;fill-opacity:1;fill-rule:nonzero;stroke:none"
                                   transform="matrix(1,0,0,-1,271.832,89.886)"><tspan
                                   id="tspan484"
                                   y="0"
                                   x="0 7.2627645 15.592527 20.204233 25.492403 30.104109 35.971107">Nocache</tspan></text>
<g
                                   transform="translate(271.832,89.886)"
                                   id="g486" /></g></g><g
                                   transform="translate(-2.192,3.037)"
                                   id="g488" /></g></g></g><g
                                   transform="translate(-17.208,0)"
                                   id="g490" /></g></g></g></g></g></g></g></g></g></g></g></g></g></g></g></g><g
                         transform="translate(-126.895,-67.131)"
                         id="g492" /></g></g></g></g><g
                 transform="translate(-125.537,-25.792)"
                 id="g494" /></g><g
               transform="translate(46.336,30.214)"
               id="g496" /></g><g
             id="g498" /><g
             id="g500" /></g></g></g></g></svg>